<svg width="25" height="24" viewBox="0 0 25 24" fill="none" xmlns="http://www.w3.org/2000/svg">
<g clip-path="url(#clip0_115_2050)">
<path fill-rule="evenodd" clip-rule="evenodd" d="M0.761551 2.25C0.761551 2.05109 0.841023 1.86032 0.982483 1.71967C1.12394 1.57902 1.31581 1.5 1.51586 1.5H3.77879C3.94705 1.50005 4.11046 1.55603 4.24304 1.65904C4.37562 1.76205 4.46975 1.90618 4.51047 2.0685L5.12146 4.5H22.6365C22.7481 4.50007 22.8583 4.52474 22.9591 4.57223C23.0599 4.61972 23.1488 4.68885 23.2195 4.77465C23.2902 4.86044 23.3409 4.96076 23.3679 5.06838C23.395 5.176 23.3976 5.28823 23.3758 5.397L21.8671 12.897C21.8341 13.0605 21.7472 13.2085 21.6202 13.3174C21.4931 13.4264 21.3332 13.4901 21.1656 13.4985L6.98913 14.2065L7.42211 16.5H20.3736C20.5737 16.5 20.7655 16.579 20.907 16.7197C21.0485 16.8603 21.1279 17.0511 21.1279 17.25C21.1279 17.4489 21.0485 17.6397 20.907 17.7803C20.7655 17.921 20.5737 18 20.3736 18H6.79603C6.62017 17.9998 6.4499 17.9386 6.31465 17.8268C6.17939 17.7151 6.08766 17.5599 6.0553 17.388L3.79388 5.4105L3.19043 3H1.51586C1.31581 3 1.12394 2.92098 0.982483 2.78033C0.841023 2.63968 0.761551 2.44891 0.761551 2.25ZM5.44129 6L6.70853 12.7185L20.5034 12.03L21.7163 6H5.44129ZM8.30465 18C7.50443 18 6.73698 18.3161 6.17114 18.8787C5.6053 19.4413 5.28741 20.2044 5.28741 21C5.28741 21.7956 5.6053 22.5587 6.17114 23.1213C6.73698 23.6839 7.50443 24 8.30465 24C9.10487 24 9.87232 23.6839 10.4382 23.1213C11.004 22.5587 11.3219 21.7956 11.3219 21C11.3219 20.2044 11.004 19.4413 10.4382 18.8787C9.87232 18.3161 9.10487 18 8.30465 18ZM18.865 18C18.0648 18 17.2973 18.3161 16.7315 18.8787C16.1656 19.4413 15.8478 20.2044 15.8478 21C15.8478 21.7956 16.1656 22.5587 16.7315 23.1213C17.2973 23.6839 18.0648 24 18.865 24C19.6652 24 20.4327 23.6839 20.9985 23.1213C21.5643 22.5587 21.8822 21.7956 21.8822 21C21.8822 20.2044 21.5643 19.4413 20.9985 18.8787C20.4327 18.3161 19.6652 18 18.865 18ZM8.30465 19.5C7.90454 19.5 7.52082 19.658 7.2379 19.9393C6.95498 20.2206 6.79603 20.6022 6.79603 21C6.79603 21.3978 6.95498 21.7794 7.2379 22.0607C7.52082 22.342 7.90454 22.5 8.30465 22.5C8.70476 22.5 9.08849 22.342 9.37141 22.0607C9.65433 21.7794 9.81327 21.3978 9.81327 21C9.81327 20.6022 9.65433 20.2206 9.37141 19.9393C9.08849 19.658 8.70476 19.5 8.30465 19.5ZM18.865 19.5C18.4649 19.5 18.0812 19.658 17.7982 19.9393C17.5153 20.2206 17.3564 20.6022 17.3564 21C17.3564 21.3978 17.5153 21.7794 17.7982 22.0607C18.0812 22.342 18.4649 22.5 18.865 22.5C19.2651 22.5 19.6488 22.342 19.9317 22.0607C20.2147 21.7794 20.3736 21.3978 20.3736 21C20.3736 20.6022 20.2147 20.2206 19.9317 19.9393C19.6488 19.658 19.2651 19.5 18.865 19.5Z" fill="white"/>
</g>
<defs>
<clipPath id="clip0_115_2050">
<rect width="24.1379" height="24" fill="white" transform="translate(0.761551)"/>
</clipPath>
</defs>
</svg>
